<svg xmlns="http://www.w3.org/2000/svg" width="94.996" height="94.996" viewBox="0 0 94.996 94.996">
  <g id="Gruppe_49" data-name="Gruppe 49" transform="translate(-871 -210)">
    <rect id="Rechteck_26228" data-name="Rechteck 26228" width="94.867" height="94.867" transform="translate(871 210)" fill="none" opacity="0"/>
    <path id="Pfad_92" data-name="Pfad 92" d="M79,101.812A13.778,13.778,0,1,1,65.224,88.034,13.778,13.778,0,0,1,79,101.812" transform="translate(836.224 150.58)" fill="currentColor"/>
    <path id="Pfad_93" data-name="Pfad 93" d="M192.266,115.874A12.765,12.765,0,1,1,179.5,103.11a12.765,12.765,0,0,1,12.764,12.764" transform="translate(758.288 140.389)" fill="currentColor"/>
    <path id="Pfad_94" data-name="Pfad 94" d="M205.54,209.3a12.686,12.686,0,0,0-12.3-9.578H171.847c-.2,0-.408.006-.61.016a17.552,17.552,0,0,1,3.557,6.972l5.625,22.253.241.953h16l-2.628-10.4a1.8,1.8,0,0,1,3.492-.883l2.852,11.283H210.75Z" transform="translate(755.246 75.082)" fill="currentColor"/>
    <path id="Pfad_95" data-name="Pfad 95" d="M42.846,213.685a1.944,1.944,0,1,1,3.77-.953l3.078,12.179h11.2L55.27,202.658a13.7,13.7,0,0,0-13.277-10.339H18.9A13.694,13.694,0,0,0,5.625,202.658L0,224.911H11.2l3.078-12.179a1.944,1.944,0,1,1,3.77.953l-2.837,11.226H45.683Z" transform="translate(871 80.085)" fill="currentColor"/>
    <path id="Pfad_96" data-name="Pfad 96" d="M166.4,7.986V.562A.562.562,0,0,0,165.78,0l-22,2.126a.562.562,0,0,0-.508.559V20.112a.557.557,0,0,1-.524.559,9.122,9.122,0,0,0-3.762,1.092c-3.289,1.76-4.913,5-3.629,7.238s4.99,2.624,8.279.864c2.679-1.433,4.255-3.85,4.051-5.906V9.7a.562.562,0,0,1,.527-.561l13.15-.835a.562.562,0,0,1,.6.561v8.8a.557.557,0,0,1-.524.558,9.132,9.132,0,0,0-3.762,1.092c-3.289,1.76-4.913,5-3.629,7.238s4.99,2.624,8.279.864c2.679-1.433,4.255-3.85,4.051-5.906V7.987Z" transform="translate(779.797 210.09)" fill="currentColor"/>
  </g>
</svg>
